HIERARCHY
ROOT ui
{
	 OFFSET 0 0 0
	 CHANNELS 3 XPosition YPosition Z Position
	 EndSite
	 {
	 OFFSET 0 -1 0
	 }
}
ROOT li
{
	 OFFSET 0 0 0
	 CHANNELS 3 XPosition YPosition Z Position
	 EndSite
	 {
	 OFFSET 0 -1 0
	 }
}
ROOT ul
{
	 OFFSET 0 0 0
	 CHANNELS 3 XPosition YPosition Z Position
	 EndSite
	 {
	 OFFSET 0 -1 0
	 }
}
ROOT ll
{
	 OFFSET 0 0 0
	 CHANNELS 3 XPosition YPosition Z Position
	 EndSite
	 {
	 OFFSET 0 -1 0
	 }
}
ROOT tt
{
	 OFFSET 0 0 0
	 CHANNELS 3 XPosition YPosition Z Position
	 EndSite
	 {
	 OFFSET 0 -1 0
	 }
}
ROOT tb
{
	 OFFSET 0 0 0
	 CHANNELS 3 XPosition YPosition Z Position
	 EndSite
	 {
	 OFFSET 0 -1 0
	 }
}
ROOT td
{
	 OFFSET 0 0 0
	 CHANNELS 3 XPosition YPosition Z Position
	 EndSite
	 {
	 OFFSET 0 -1 0
	 }
}
ROOT v
{
	 OFFSET 0 0 0
	 CHANNELS 3 XPosition YPosition Z Position
	 EndSite
	 {
	 OFFSET 0 -1 0
	 }
}
ROOT bn
{
	 OFFSET 0 0 0
	 CHANNELS 3 XPosition YPosition Z Position
	 EndSite
	 {
	 OFFSET 0 -1 0
	 }
}
MOTION
Frames: 24
Frame Time: 0.002
-0.016597854614257813	-2.9325100779533384E-4	0		0.55877490234375	-2.71020166015625	0		-0.82489990234375	0.06415653991699219	0		-0.32241876220703125	-3.0639287109375	0		1.7475435791015625	-1.7100247802734374	0		3.197060791015625	-0.7328963623046875	0		4.309646484375	-0.32376937866210936	0		5.98811572265625	0.45356982421875	0		-0.13117359924316407	5.941451171875	0		
-0.016934459686279296	1.1916299909353256E-4	0		0.514310791015625	-2.712293701171875	0		-0.81615283203125	0.07149142456054687	0		-0.2541726379394531	-3.0903125	0		1.7540526123046876	-1.7177559814453125	0		3.175992919921875	-0.7073526000976562	0		4.29936328125	-0.3183800048828125	0		5.987794921875	0.45377096557617186	0		-0.13031292724609375	5.94085595703125	0		
0.03573654174804688	-1.0254400223493576E-4	0		0.513892578125	-2.71191064453125	0		-0.8783303833007813	0.0846480712890625	0		-0.3058236083984375	-3.10830224609375	0		1.7597738037109374	-1.7084864501953125	0		3.194571533203125	-0.7132835693359375	0		4.32418310546875	-0.3054093017578125	0		5.9925791015625	0.4619073181152344	0		-0.13043482971191406	5.94126123046875	0		
0.039462234497070314	0.0032383649349212646	0		0.5674185791015625	-2.71817431640625	0		-0.805441650390625	0.10120499420166015	0		-0.24541734313964844	-3.12362060546875	0		1.7594075927734374	-1.708155517578125	0		3.18535693359375	-0.7028948974609375	0		4.3197978515625	-0.31110430908203124	0		5.98719091796875	0.4541571960449219	0		-0.1656033477783203	5.93706787109375	0		
-0.020897308349609376	-0.0016754029989242555	0		0.5380523071289063	-2.716471923828125	0		-0.801684326171875	0.10556114196777344	0		-0.24202351379394532	-3.141281005859375	0		1.7529539794921876	-1.716762451171875	0		3.197064208984375	-0.7007611694335938	0		4.3145947265625	-0.3027952575683594	0		5.98691259765625	0.45434295654296875	0		-0.09756869506835937	5.948646484375	0		
0.034853412628173826	0.0010271120071411134	0		0.5616031494140625	-2.72340673828125	0		-0.797914794921875	0.10990388488769531	0		-0.24949542236328126	-3.14882421875	0		1.7716070556640624	-1.71767578125	0		3.180762939453125	-0.7003042602539062	0		4.3143095703125	-0.3025516357421875	0		5.98255126953125	0.44657229614257815	0		-0.14686436462402344	5.93259716796875	0		
-0.04845201110839844	-6.346549987792969E-4	0		0.5162149658203125	-2.725535400390625	0		-0.8590403442382812	0.12300416564941406	0		-0.23316183471679688	-3.1736640625	0		1.758400634765625	-1.70722119140625	0		3.17750244140625	-0.6970093383789062	0		4.31810009765625	-0.29636309814453127	0		5.98638330078125	0.45470135498046876	0		-0.13084800720214843	5.942763671875	0		
0.04419229125976563	-0.007400658130645752	0		0.5837374267578125	-2.736019287109375	0		-0.8542672729492188	0.1273079833984375	0		-0.22365966796875	-3.184436279296875	0		1.7680269775390625	-1.71104931640625	0		3.2195595703125	-0.6672605590820313	0		4.3159736328125	-0.2831111450195313	0		5.98611865234375	0.4548741149902344	0		-0.129971923828125	5.94209521484375	0		
-0.045968231201171876	0.003997883081436157	0		0.548549072265625	-2.72129150390625	0		-0.8454552001953125	0.1355487518310547	0		-0.24099240112304687	-3.1809013671875	0		1.7828023681640626	-1.7019490966796875	0		3.19317431640625	-0.6737080078125	0		4.3188505859375	-0.26892584228515626	0		5.98584423828125	0.45504315185546873	0		-0.13207786560058593	5.94444873046875	0		
0.033713855743408204	0.002355613946914673	0		0.569060791015625	-2.7312421875	0		-0.787696533203125	0.14018879699707032	0		-0.20463661193847657	-3.203023193359375	0		1.7555697021484375	-1.692357421875	0		3.19407275390625	-0.6554864501953125	0		4.309572265625	-0.26660260009765624	0		5.97737646484375	0.44030612182617185	0		-0.13223219299316405	5.94476513671875	0		
-0.04074410629272461	-0.008457009315490722	0		0.5406931762695313	-2.729618896484375	0		-0.78296533203125	0.14444712829589842	0		-0.2209798583984375	-3.1985263671875	0		1.79619677734375	-1.693587890625	0		3.174775634765625	-0.6520309448242188	0		4.3084052734375	-0.2533808898925781	0		5.981150390625	0.4474225158691406	0		-0.1475473937988281	5.93424951171875	0		
0.029004095077514648	-0.0010083129405975342	0		0.567256103515625	-2.73266552734375	0		-0.8532398681640625	0.15059175109863282	0		-0.2145692138671875	-3.213316162109375	0		1.761941650390625	-1.6829290771484375	0		3.194670166015625	-0.6310496215820313	0		4.306216796875	-0.24015115356445313	0		5.98081689453125	0.4475873107910156	0		-0.13263619995117187	5.9453603515625	0		
-0.04729846954345703	0.005182138919830322	0		0.5258526000976562	-2.7309052734375	0		-0.8554007568359375	0.1679080505371094	0		-0.20512956237792968	-3.22415380859375	0		1.7807093505859375	-1.6689132080078124	0		3.194386474609375	-0.6228313598632812	0		4.3180029296875	-0.22709153747558594	0		5.98846875	0.4486585388183594	0		-0.09882502746582031	5.95123095703125	0		
0.03228937530517578	0.0034883038997650146	0		0.5615805053710937	-2.717079833984375	0		-0.85174462890625	0.1721415557861328	0		-0.21847819519042969	-3.2157265625	0		1.7605064697265624	-1.6504339599609374	0		3.19824658203125	-0.600663818359375	0		4.31184814453125	-0.20681581115722655	0		5.98808154296875	0.44883123779296874	0		-0.13319419860839843	5.94591064453125	0		
-0.04811212158203125	0.005711428165435791	0		0.5311148681640625	-2.717466064453125	0		-0.8521616821289062	0.1724125518798828	0		-0.18902713012695313	-3.222824951171875	0		1.780051513671875	-1.651438720703125	0		3.185976806640625	-0.5873032836914063	0		4.3065126953125	-0.1995494384765625	0		5.9915712890625	0.440963134765625	0		-0.11558360290527343	5.94195556640625	0		
0.0372716064453125	-0.00907343292236328	0		0.557606201171875	-2.72054638671875	0		-0.8634796752929688	0.18280453491210938	0		-0.226512451171875	-3.223125732421875	0		1.7508599853515625	-1.62885888671875	0		3.167687255859375	-0.57387060546875	0		4.326154296875	-0.19258294677734375	0		5.97922021484375	0.44829367065429687	0		-0.13588697814941406	5.9484482421875	0		
-0.0520594367980957	0.0022414228916168215	0		0.53118798828125	-2.714995849609375	0		-0.8598883056640625	0.18700479125976563	0		-0.19505975341796875	-3.22826806640625	0		1.777470947265625	-1.6219580078125	0		3.170381103515625	-0.5606920776367188	0		4.3029267578125	-0.1730976867675781	0		5.978765625	0.4484862365722656	0		-0.13333267211914063	5.9456552734375	0		
0.03050237274169922	0.004471731185913086	0		0.5466787719726562	-2.71695947265625	0		-0.8553076782226563	0.19118148803710938	0		-0.2573971252441406	-3.21528662109375	0		1.7661630859375	-1.6076038818359375	0		3.19828173828125	-0.529818115234375	0		4.301615234375	-0.1598766632080078	0		5.98729931640625	0.448575927734375	0		-0.13376712036132812	5.945888671875	0		
-0.04005903244018555	-0.002459244966506958	0		0.5741859741210937	-2.718076416015625	0		-0.78179443359375	0.18951358032226562	0		-0.19095474243164062	-3.22187158203125	0		1.7819888916015625	-1.58258154296875	0		3.17601708984375	-0.5123408813476562	0		4.31241015625	-0.13780081176757814	0		5.99484228515625	0.4496829833984375	0		-0.10212356567382813	5.953724609375	0		
0.029571647644042968	0.004907886981964111	0		0.5607721557617188	-2.713706787109375	0		-0.793133544921875	0.19985960388183593	0		-0.23829408264160157	-3.211091064453125	0		1.7697449951171875	-1.5642261962890625	0		3.157714111328125	-0.498913818359375	0		4.302119140625	-0.12347114562988282	0		5.97737109375	0.4490965881347656	0		-0.10257941436767579	5.95393798828125	0		
-0.05389809417724609	0.0031130659580230714	0		0.5603360595703125	-2.713503662109375	0		-0.7976213989257812	0.1961096649169922	0		-0.17585491943359374	-3.221649169921875	0		1.7436112060546876	-1.5387093505859375	0		3.177418701171875	-0.4869497680664063	0		4.2967646484375	-0.11620378112792969	0		5.97674951171875	0.4343077392578125	0		-0.13808436584472655	5.9495634765625	0		
0.034570716857910154	-0.007770652770996094	0		0.50804052734375	-2.704684326171875	0		-0.8679724731445313	0.20114260864257813	0		-0.19427215576171875	-3.223241943359375	0		1.7533560791015625	-1.5266353759765625	0		3.159391845703125	-0.455534912109375	0		4.2906025390625	-0.09593070983886719	0		5.9814287109375	0.4414549560546875	0		-0.17158808898925781	5.94315234375	0		
0.024327400207519532	0.0015263689756393434	0		0.5646832275390625	-2.706193359375	0		-0.7943314819335937	0.2004224853515625	0		-0.1915750274658203	-3.220102294921875	0		1.7603232421875	-1.500537353515625	0		3.179196533203125	-0.44258685302734374	0		4.3015625	-0.06987163543701172	0		5.9761708984375	0.4497172241210938	0		-0.1388842315673828	5.9499296875	0		
0.028087194442749024	0.005640055179595947	0		0.5026073303222657	-2.68928125	0		-0.8055113525390625	0.2097123260498047	0		-0.19866419982910155	-3.20485791015625	0		1.7504541015625	-1.46624755859375	0		3.1722490234375	-0.41432504272460935	0		4.30041845703125	-0.05767684173583985	0		5.9717958984375	0.44296060180664065	0		-0.1392047576904297	5.95009130859375	0		
